<svg width="445" height="250" viewBox="0 0 445 250" fill="none" xmlns="http://www.w3.org/2000/svg">
<path d="M419.876 50.373C429.251 86.7191 427.692 125.23 415.395 161.037C403.099 196.843 380.617 228.336 350.794 251.534C320.97 274.731 285.144 288.592 247.845 291.361C210.546 294.131 173.451 285.687 141.25 267.095C109.049 248.504 83.188 220.601 66.9375 186.914C50.6869 153.228 44.7767 115.272 49.9547 77.8447C55.1326 40.4177 71.1656 5.20167 96.0265 -23.3506C120.888 -51.9035 153.46 -72.5091 189.624 -82.5631L194.364 -64.1861C161.816 -55.1373 132.502 -36.5924 110.127 -10.8951C87.752 14.8016 73.322 46.4965 68.6619 80.1808C64.0018 113.865 69.3208 148.026 83.9465 178.344C98.5718 208.661 121.846 233.774 150.828 250.506C179.809 267.239 213.195 274.839 246.763 272.346C280.332 269.853 312.576 257.379 339.417 236.501C366.258 215.623 386.492 187.279 397.559 155.054C408.626 122.828 410.028 88.1681 401.591 55.4564L419.876 50.373Z" fill="#5E66FD"/>
</svg>
