<svg width="215" height="46" viewBox="0 0 215 46" fill="none" xmlns="http://www.w3.org/2000/svg">
<g clip-path="url(#clip0)">
<path d="M37.9256 5.26453C34.5906 2.53124 30.5515 0.778939 26.2653 0.20587C21.979 -0.3672 17.6167 0.26184 13.6719 2.02182C9.72718 3.7818 6.35737 6.60247 3.94381 10.1647C1.53024 13.7269 0.169231 17.8885 0.0147836 22.1786C-0.139665 26.4688 0.918606 30.7162 3.06986 34.4403C5.22111 38.1645 8.37949 41.2167 12.1876 43.2516C15.9958 45.2866 20.3017 46.2231 24.6183 45.9552C28.9348 45.6872 33.0896 44.2255 36.6127 41.7355L35.2686 39.8619C32.0978 42.103 28.3584 43.4185 24.4736 43.6596C20.5888 43.9008 16.7134 43.0579 13.2861 41.2265C9.85873 39.395 7.0162 36.648 5.08007 33.2963C3.14394 29.9446 2.19149 26.1219 2.3305 22.2608C2.46951 18.3997 3.69441 14.6542 5.86661 11.4482C8.03883 8.24223 11.0717 5.70362 14.6219 4.11964C18.1722 2.53566 22.0983 1.96952 25.9559 2.48528C29.8135 3.00105 33.4487 4.57812 36.4503 7.03808L37.9256 5.26453Z" fill="#0311FC"/>
<path d="M29.4667 31V18.856L24.4132 28.072H22.8173L17.7396 18.856V31H15.0316V13.96H17.9331L23.6152 24.376L29.2974 13.96H32.1989V31H29.4667ZM41.25 31.24C39.9443 31.24 38.7998 30.944 37.8165 30.352C36.8332 29.76 36.0675 28.976 35.5195 28C34.9714 27.008 34.6974 25.928 34.6974 24.76C34.6974 23.576 34.9714 22.488 35.5195 21.496C36.0675 20.504 36.8332 19.712 37.8165 19.12C38.7998 18.528 39.9524 18.232 41.2742 18.232C42.596 18.232 43.7405 18.536 44.7076 19.144C45.6748 19.736 46.4163 20.52 46.9322 21.496C47.4641 22.472 47.7301 23.52 47.7301 24.64C47.7301 25.04 47.7059 25.36 47.6575 25.6H37.5264C37.5747 26.336 37.7762 26.984 38.1308 27.544C38.5016 28.088 38.961 28.52 39.5091 28.84C40.0733 29.144 40.6858 29.296 41.3467 29.296C42.056 29.296 42.7249 29.12 43.3536 28.768C43.9823 28.416 44.4175 27.952 44.6593 27.376L46.9322 28.024C46.4969 28.968 45.7715 29.744 44.756 30.352C43.7566 30.944 42.5879 31.24 41.25 31.24ZM37.4538 23.848H45.0945C45.03 23.128 44.8205 22.496 44.4659 21.952C44.1112 21.392 43.6518 20.96 43.0876 20.656C42.5396 20.336 41.927 20.176 41.25 20.176C40.5891 20.176 39.9765 20.336 39.4124 20.656C38.8643 20.96 38.4129 21.392 38.0583 21.952C37.7037 22.496 37.5022 23.128 37.4538 23.848ZM57.0808 31.24C56.0653 31.24 55.1707 31 54.3969 30.52C53.6232 30.04 53.0107 29.416 52.5593 28.648V36.112H49.8996V18.448H52.245V20.704C52.7286 19.952 53.3572 19.352 54.131 18.904C54.9047 18.456 55.7671 18.232 56.7182 18.232C57.8788 18.232 58.9024 18.536 59.7889 19.144C60.6916 19.736 61.4009 20.528 61.9167 21.52C62.4326 22.496 62.6905 23.56 62.6905 24.712C62.6905 25.928 62.4487 27.032 61.9651 28.024C61.4815 29 60.8206 29.784 59.9824 30.376C59.1442 30.952 58.177 31.24 57.0808 31.24ZM56.2104 28.984C56.968 28.984 57.6209 28.784 58.1689 28.384C58.7331 27.968 59.1683 27.44 59.4746 26.8C59.797 26.144 59.9582 25.448 59.9582 24.712C59.9582 23.944 59.7809 23.24 59.4263 22.6C59.0877 21.96 58.6203 21.448 58.0238 21.064C57.4435 20.68 56.7746 20.488 56.017 20.488C55.5656 20.488 55.0901 20.6 54.5904 20.824C54.1068 21.048 53.6796 21.344 53.3089 21.712C52.9381 22.08 52.6883 22.496 52.5593 22.96V26.248C52.8817 27.016 53.3733 27.664 54.0342 28.192C54.7113 28.72 55.4366 28.984 56.2104 28.984ZM65.0825 31V18.448H67.7181V23.416H68.9754L72.699 18.448H75.6489L71.0307 24.52L76.1809 31H73.1101L68.9512 25.792H67.7181V31H65.0825ZM79.928 36.328C79.6217 36.328 79.3074 36.288 78.985 36.208C78.6787 36.128 78.3483 36.008 77.9936 35.848L78.6706 33.88C79.0414 34.072 79.388 34.168 79.7104 34.168C80.5325 34.168 81.1934 33.512 81.6931 32.2L82.1767 30.904L76.833 18.448H79.6136L83.4823 28.312L86.9158 18.448H89.4788L83.9176 32.92C83.4985 34.04 82.9343 34.888 82.225 35.464C81.5319 36.04 80.7662 36.328 79.928 36.328ZM98.6156 31.24C97.6001 31.24 96.7055 31 95.9317 30.52C95.158 30.04 94.5454 29.416 94.0941 28.648V36.112H91.4343V18.448H93.7798V20.704C94.2633 19.952 94.892 19.352 95.6657 18.904C96.4395 18.456 97.3019 18.232 98.2529 18.232C99.4136 18.232 100.437 18.536 101.324 19.144C102.227 19.736 102.936 20.528 103.452 21.52C103.967 22.496 104.225 23.56 104.225 24.712C104.225 25.928 103.984 27.032 103.5 28.024C103.016 29 102.355 29.784 101.517 30.376C100.679 30.952 99.7118 31.24 98.6156 31.24ZM97.7452 28.984C98.5028 28.984 99.1556 28.784 99.7037 28.384C100.268 27.968 100.703 27.44 101.009 26.8C101.332 26.144 101.493 25.448 101.493 24.712C101.493 23.944 101.316 23.24 100.961 22.6C100.623 21.96 100.155 21.448 99.5586 21.064C98.9783 20.68 98.3094 20.488 97.5517 20.488C97.1004 20.488 96.6249 20.6 96.1252 20.824C95.6416 21.048 95.2144 21.344 94.8436 21.712C94.4729 22.08 94.223 22.496 94.0941 22.96V26.248C94.4165 27.016 94.9081 27.664 95.569 28.192C96.2461 28.72 96.9714 28.984 97.7452 28.984ZM106.617 31V18.472H109.277V27.472L115.684 18.448H118.102V31H115.443V22.192L109.108 31H106.617ZM121.281 31V18.472H123.941V27.472L130.348 18.448H132.766V31H130.106V22.192L123.771 31H121.281ZM127.036 17.152C125.843 17.152 124.916 16.856 124.255 16.264C123.61 15.672 123.288 14.928 123.288 14.032H125.029C125.029 14.496 125.182 14.88 125.488 15.184C125.811 15.488 126.326 15.64 127.036 15.64C127.729 15.64 128.22 15.496 128.511 15.208C128.801 14.92 128.986 14.528 129.067 14.032H130.808C130.808 14.928 130.477 15.672 129.816 16.264C129.171 16.856 128.245 17.152 127.036 17.152ZM155.144 34.24V31H142.257V13.96H144.965V28.624H152.63V13.96H155.362V28.624H157.538V34.24H155.144ZM165.689 31.24C164.384 31.24 163.239 30.944 162.256 30.352C161.273 29.76 160.507 28.976 159.958 28C159.411 27.008 159.137 25.928 159.137 24.76C159.137 23.576 159.411 22.488 159.958 21.496C160.507 20.504 161.273 19.712 162.256 19.12C163.239 18.528 164.392 18.232 165.714 18.232C167.035 18.232 168.18 18.536 169.147 19.144C170.114 19.736 170.856 20.52 171.372 21.496C171.904 22.472 172.169 23.52 172.169 24.64C172.169 25.04 172.145 25.36 172.097 25.6H161.966C162.014 26.336 162.216 26.984 162.57 27.544C162.941 28.088 163.4 28.52 163.948 28.84C164.513 29.144 165.125 29.296 165.786 29.296C166.495 29.296 167.164 29.12 167.793 28.768C168.422 28.416 168.857 27.952 169.099 27.376L171.372 28.024C170.936 28.968 170.211 29.744 169.195 30.352C168.196 30.944 167.027 31.24 165.689 31.24ZM161.893 23.848H169.534C169.469 23.128 169.26 22.496 168.905 21.952C168.551 21.392 168.091 20.96 167.527 20.656C166.979 20.336 166.366 20.176 165.689 20.176C165.029 20.176 164.416 20.336 163.852 20.656C163.304 20.96 162.852 21.392 162.498 21.952C162.143 22.496 161.942 23.128 161.893 23.848ZM174.339 31V18.448H176.998V23.44H182.874V18.448H185.534V31H182.874V25.72H176.998V31H174.339ZM191.741 31V20.776H187.558V18.448H198.608V20.776H194.4V31H191.741ZM207.777 31.24C206.761 31.24 205.867 31 205.093 30.52C204.319 30.04 203.706 29.416 203.255 28.648V36.112H200.595V18.448H202.941V20.704C203.424 19.952 204.053 19.352 204.827 18.904C205.601 18.456 206.463 18.232 207.414 18.232C208.575 18.232 209.598 18.536 210.485 19.144C211.387 19.736 212.097 20.528 212.613 21.52C213.128 22.496 213.386 23.56 213.386 24.712C213.386 25.928 213.145 27.032 212.661 28.024C212.177 29 211.516 29.784 210.678 30.376C209.84 30.952 208.873 31.24 207.777 31.24ZM206.906 28.984C207.664 28.984 208.317 28.784 208.865 28.384C209.429 27.968 209.864 27.44 210.17 26.8C210.493 26.144 210.654 25.448 210.654 24.712C210.654 23.944 210.477 23.24 210.122 22.6C209.784 21.96 209.316 21.448 208.72 21.064C208.139 20.68 207.47 20.488 206.713 20.488C206.261 20.488 205.786 20.6 205.286 20.824C204.803 21.048 204.375 21.344 204.005 21.712C203.634 22.08 203.384 22.496 203.255 22.96V26.248C203.578 27.016 204.069 27.664 204.73 28.192C205.407 28.72 206.132 28.984 206.906 28.984Z" fill="#0311FC"/>
</g>
<defs>
<clipPath id="clip0">
<rect width="214.592" height="46" fill="white"/>
</clipPath>
</defs>
</svg>
