<svg width="20" height="20" viewBox="0 0 20 20" fill="none" xmlns="http://www.w3.org/2000/svg">
<path d="M19.2836 7.27572L13.3328 6.41087L10.6727 1.0179C10.6 0.870248 10.4805 0.750717 10.3328 0.67806C9.96251 0.495248 9.51251 0.647592 9.32736 1.0179L6.6672 6.41087L0.71642 7.27572C0.552357 7.29916 0.402357 7.3765 0.287513 7.49369C0.148674 7.63639 0.0721667 7.82837 0.0748035 8.02746C0.0774404 8.22654 0.159005 8.41643 0.301576 8.55541L4.60704 12.7531L3.58986 18.6804C3.566 18.8183 3.58126 18.9601 3.6339 19.0898C3.68654 19.2194 3.77445 19.3317 3.88767 19.4139C4.00089 19.4962 4.13489 19.545 4.27447 19.555C4.41404 19.5649 4.55362 19.5356 4.67736 19.4703L10 16.6718L15.3227 19.4703C15.468 19.5476 15.6367 19.5734 15.7985 19.5452C16.2063 19.4749 16.4805 19.0882 16.4102 18.6804L15.393 12.7531L19.6985 8.55541C19.8156 8.44056 19.893 8.29056 19.9164 8.1265C19.9797 7.71634 19.6938 7.33666 19.2836 7.27572Z" fill="#0311FC"/>
</svg>
